# xmcd
#
# Track frame offsets: 
#        150
#        16297
#        43230
#        54052
#        73658
#        81745
#        97544
#        114972
#        129273
#        148455
#        157500
#
# Disc length: 2416 seconds
#
# Revision: 0
# Processed by: cddbd v1.5.2PL0 Copyright (c) Steve Scherf et al.
# Submitted via: ExactAudioCopy v0.99pb4
#
DISCID=85096e0b
DTITLE=Otis Taylor - White African
DYEAR=2001
DGENRE=Blues
TTITLE0=My Soul's in Louisiana
TTITLE1=Resurrection Blues
TTITLE2=Momma Don't You Do It
TTITLE3=3 Days and 3 Nights
TTITLE4=Round and Round
TTITLE5=Stick on You
TTITLE6=Rain So Hard
TTITLE7=Lost My Horse
TTITLE8=Saint Martha Blues
TTITLE9=Ain't No Cowgirl
TTITLE10=Hungry People
EXTD=
EXTT0=
EXTT1=
EXTT2=
EXTT3=
EXTT4=
EXTT5=
EXTT6=
EXTT7=
EXTT8=
EXTT9=
EXTT10=
PLAYORDER=
